# File produced by Open Asset Import Library (http://www.assimp.sf.net)
# (assimp v5.0.1588609223)

mtllib result.mtl

# 8 vertex positions
v  -0.99999905 -0.99999905 0.99999905
v  -0.99999905 0.99999905 0.99999905
v  -0.99999905 0.99999905 -0.99999905
v  -0.99999905 -0.99999905 -0.99999905
v  0.99999905 0.99999905 -0.99999905
v  0.99999905 -0.99999905 -0.99999905
v  0.99999905 0.99999905 0.99999905
v  0.99999905 -0.99999905 0.99999905

# 0 UV coordinates

# 8 vertex normals
vn -0.57735026 -0.57735026 0.57735026
vn -0.57735026 0.57735026 0.57735026
vn -0.57735026 0.57735026 -0.57735026
vn -0.57735026 -0.57735026 -0.57735026
vn 0.57735026 0.57735026 -0.57735026
vn 0.57735026 -0.57735026 -0.57735026
vn 0.57735026 0.57735026 0.57735026
vn 0.57735026 -0.57735026 0.57735026

# Mesh 'Cube.001' with 6 faces
g Cube.001
usemtl DefaultMaterial
f  1//1 2//2 3//3 4//4
f  4//4 3//3 5//5 6//6
f  6//6 5//5 7//7 8//8
f  8//8 7//7 2//2 1//1
f  4//4 6//6 8//8 1//1
f  5//5 3//3 2//2 7//7

